<svg width="1108" height="792" viewBox="0 0 1108 792" fill="none" xmlns="http://www.w3.org/2000/svg">
<rect x="623" y="381" width="100" height="88" fill="#74E995"/>
<rect x="520" y="60" width="100" height="88" fill="#E97474"/>
<rect x="444" y="381" width="179" height="88" fill="#E5E5E5"/>
<rect x="846.185" y="116.171" width="502.332" height="103.105" transform="rotate(90.45 846.185 116.171)" fill="#E5E5E5"/>
<rect x="939.453" y="303.53" width="194.292" height="67.5103" transform="rotate(90.45 939.453 303.53)" fill="#E5E5E5"/>
<rect x="1107.8" y="396.104" width="234.939" height="103.105" transform="rotate(179.738 1107.8 396.104)" fill="#E5E5E5"/>
<rect x="1007.29" y="739.5" width="234.939" height="100.539" transform="rotate(-90.3135 1007.29 739.5)" fill="#E5E5E5"/>
<rect x="1107.41" y="522.104" width="234.939" height="103.105" transform="rotate(179.738 1107.41 522.104)" fill="#E5E5E5"/>
<rect x="1107.46" y="209.412" width="85.9944" height="52.5167" transform="rotate(90.45 1107.46 209.412)" fill="#E5E5E5"/>
<rect x="1092.06" y="257.203" width="190.002" height="48.1266" transform="rotate(179.933 1092.06 257.203)" fill="#E5E5E5"/>
<rect x="1006.05" y="157.81" width="98.3753" height="103.105" transform="rotate(90.45 1006.05 157.81)" fill="#E5E5E5"/>
<rect x="1005.84" y="158.146" width="213.536" height="42.0685" transform="rotate(-179.711 1005.84 158.146)" fill="#E5E5E5"/>
<rect x="339" y="504" width="490" height="114" fill="#E5E5E5"/>
<rect x="308.997" y="226" width="490" height="114" transform="rotate(89.5688 308.997 226)" fill="#E5E5E5"/>
<rect x="197" y="678" width="365" height="61" fill="#E5E5E5"/>
<rect x="494" y="678" width="614" height="114" fill="#E5E5E5"/>
<rect x="337.207" y="554.759" width="308.765" height="88" transform="rotate(-89.6498 337.207 554.759)" fill="#E5E5E5"/>
<rect y="240.759" width="240.754" height="28.3932" transform="rotate(-89.6498 0 240.759)" fill="#E5E5E5"/>
<path d="M373.388 92.6409L520.752 92L520.875 120.393L373.511 121.034L373.388 92.6409Z" fill="#E5E5E5"/>
<rect x="373.289" y="105.488" width="44.4722" height="28.3932" transform="rotate(-89.6498 373.289 105.488)" fill="#E5E5E5"/>
<rect x="160" y="61.6528" width="240.754" height="25.4315" transform="rotate(-0.393334 160 61.6528)" fill="#E5E5E5"/>
<rect x="160" y="152.749" width="68.4285" height="28.3932" transform="rotate(-89.6498 160 152.749)" fill="#E5E5E5"/>
<rect x="102" y="124.48" width="58.0574" height="28.3932" transform="rotate(-0.352119 102 124.48)" fill="#E5E5E5"/>
<rect x="101.506" y="152.349" width="146.352" height="28.3932" transform="rotate(-89.6498 101.506 152.349)" fill="#E5E5E5"/>
<rect x="15" y="0.0320435" width="116.029" height="24.991" transform="rotate(-0.00762894 15 0.0320435)" fill="#E5E5E5"/>
<rect x="2" y="197.708" width="308.765" height="43.1659" transform="rotate(-0.316986 2 197.708)" fill="#E5E5E5"/>
<rect x="339" y="165" width="372" height="88" fill="#E5E5E5"/>
<rect x="710.402" y="217.745" width="128.254" height="88" transform="rotate(89.5429 710.402 217.745)" fill="#E5E5E5"/>
<rect x="444" y="288" width="179" height="58" fill="#E5E5E5"/>
<rect x="532.356" y="295.308" width="101.853" height="88" transform="rotate(90.2008 532.356 295.308)" fill="#E5E5E5"/>
<path d="M532.202 112V93.8182H543.104V95.7713H534.403V101.915H542.287V103.868H534.403V112H532.202ZM549.076 93.8182V112H546.875V93.8182H549.076ZM567.908 93.8182V112H565.778L555.87 97.7244H555.692V112H553.491V93.8182H555.621L565.565 108.129H565.742V93.8182H567.908ZM574.516 93.8182V112H572.314V93.8182H574.516ZM588.873 98.3636C588.767 97.464 588.335 96.7656 587.577 96.2685C586.82 95.7713 585.89 95.5227 584.79 95.5227C583.985 95.5227 583.28 95.6529 582.677 95.9134C582.079 96.1738 581.611 96.5318 581.274 96.9876C580.943 97.4433 580.777 97.9612 580.777 98.5412C580.777 99.0265 580.892 99.4438 581.123 99.793C581.36 100.136 581.662 100.423 582.029 100.654C582.396 100.879 582.78 101.065 583.183 101.213C583.585 101.355 583.955 101.471 584.292 101.56L586.139 102.057C586.613 102.181 587.139 102.353 587.719 102.572C588.305 102.791 588.865 103.09 589.397 103.468C589.936 103.841 590.38 104.321 590.729 104.907C591.078 105.493 591.253 106.212 591.253 107.064C591.253 108.046 590.995 108.934 590.48 109.727C589.971 110.52 589.226 111.151 588.243 111.618C587.267 112.086 586.08 112.32 584.683 112.32C583.381 112.32 582.253 112.109 581.301 111.689C580.354 111.269 579.608 110.683 579.063 109.931C578.525 109.18 578.22 108.307 578.149 107.312H580.422C580.481 107.999 580.712 108.567 581.114 109.017C581.523 109.461 582.037 109.792 582.659 110.011C583.286 110.224 583.961 110.331 584.683 110.331C585.523 110.331 586.278 110.195 586.947 109.923C587.616 109.644 588.145 109.26 588.536 108.768C588.927 108.271 589.122 107.691 589.122 107.028C589.122 106.425 588.953 105.933 588.616 105.555C588.279 105.176 587.835 104.868 587.284 104.631C586.734 104.395 586.139 104.187 585.5 104.01L583.263 103.371C581.842 102.962 580.718 102.379 579.889 101.622C579.06 100.864 578.646 99.8729 578.646 98.6477C578.646 97.6297 578.921 96.742 579.472 95.9844C580.028 95.2209 580.774 94.629 581.709 94.2088C582.65 93.7827 583.701 93.5696 584.861 93.5696C586.032 93.5696 587.074 93.7797 587.986 94.1999C588.897 94.6142 589.619 95.1824 590.152 95.9045C590.69 96.6265 590.974 97.4463 591.004 98.3636H588.873ZM594.873 112V93.8182H597.074V101.915H606.769V93.8182H608.971V112H606.769V103.868H597.074V112H594.873Z" fill="white"/>
<path d="M642.574 419.636C642.446 418.557 641.928 417.719 641.018 417.122C640.109 416.526 638.994 416.227 637.673 416.227C636.707 416.227 635.862 416.384 635.138 416.696C634.42 417.009 633.859 417.438 633.455 417.985C633.057 418.532 632.858 419.153 632.858 419.849C632.858 420.432 632.996 420.933 633.273 421.352C633.558 421.763 633.92 422.108 634.36 422.385C634.8 422.655 635.262 422.879 635.745 423.056C636.228 423.227 636.672 423.365 637.077 423.472L639.293 424.068C639.861 424.217 640.493 424.423 641.189 424.686C641.892 424.949 642.563 425.308 643.202 425.762C643.849 426.21 644.381 426.785 644.8 427.488C645.219 428.191 645.429 429.054 645.429 430.077C645.429 431.256 645.12 432.321 644.502 433.273C643.891 434.224 642.996 434.981 641.817 435.542C640.646 436.103 639.222 436.384 637.545 436.384C635.983 436.384 634.63 436.131 633.487 435.627C632.35 435.123 631.455 434.42 630.802 433.518C630.156 432.616 629.79 431.568 629.705 430.375H632.432C632.503 431.199 632.78 431.881 633.263 432.42C633.753 432.953 634.371 433.351 635.116 433.614C635.869 433.869 636.679 433.997 637.545 433.997C638.554 433.997 639.46 433.834 640.262 433.507C641.065 433.173 641.7 432.712 642.169 432.122C642.638 431.526 642.872 430.83 642.872 430.034C642.872 429.31 642.67 428.72 642.265 428.266C641.86 427.811 641.327 427.442 640.667 427.158C640.006 426.874 639.293 426.625 638.526 426.412L635.841 425.645C634.136 425.155 632.787 424.455 631.793 423.546C630.798 422.637 630.301 421.447 630.301 419.977C630.301 418.756 630.631 417.69 631.292 416.781C631.96 415.865 632.854 415.155 633.977 414.651C635.106 414.139 636.366 413.884 637.759 413.884C639.165 413.884 640.415 414.136 641.509 414.64C642.602 415.137 643.469 415.819 644.108 416.685C644.754 417.552 645.095 418.536 645.131 419.636H642.574ZM648.58 416.526V414.182H664.943V416.526H658.083V436H655.441V416.526H648.58ZM667.367 436H664.597L672.608 414.182H675.336L683.347 436H680.577L674.057 417.634H673.887L667.367 436ZM668.39 427.477H679.555V429.821H668.39V427.477ZM686.746 436V414.182H694.118C695.822 414.182 697.221 414.473 698.315 415.055C699.409 415.631 700.219 416.423 700.744 417.431C701.27 418.44 701.532 419.587 701.532 420.872C701.532 422.158 701.27 423.298 700.744 424.292C700.219 425.286 699.412 426.067 698.326 426.636C697.239 427.197 695.851 427.477 694.16 427.477H688.194V425.091H694.075C695.24 425.091 696.177 424.92 696.888 424.58C697.605 424.239 698.123 423.756 698.443 423.131C698.77 422.499 698.933 421.746 698.933 420.872C698.933 419.999 698.77 419.235 698.443 418.582C698.116 417.928 697.594 417.424 696.877 417.069C696.16 416.707 695.211 416.526 694.032 416.526H689.388V436H686.746ZM697.015 426.199L702.385 436H699.317L694.032 426.199H697.015ZM704.742 416.526V414.182H721.105V416.526H714.245V436H711.603V416.526H704.742Z" fill="black"/>
</svg>
