<svg width="1131" height="775" viewBox="0 0 1131 775" fill="none" xmlns="http://www.w3.org/2000/svg">
<rect x="70" y="188" width="126" height="108" fill="#74E995"/>
<rect x="659" y="491" width="108" height="78" fill="#E97474"/>
<rect x="191" y="188" width="851" height="108" fill="#E5E5E5"/>
<rect x="934.389" y="452.178" width="264.019" height="108" transform="rotate(-90.0845 934.389 452.178)" fill="#E5E5E5"/>
<rect x="659.217" y="491.031" width="146.872" height="108" transform="rotate(-90.0845 659.217 491.031)" fill="#E5E5E5"/>
<rect x="713" y="344" width="329" height="108" fill="#E5E5E5"/>
<path d="M97.5739 236.636C97.446 235.557 96.9276 234.719 96.0185 234.122C95.1094 233.526 93.9943 233.227 92.6733 233.227C91.7074 233.227 90.8622 233.384 90.1378 233.696C89.4205 234.009 88.8594 234.438 88.4545 234.985C88.0568 235.532 87.858 236.153 87.858 236.849C87.858 237.432 87.9964 237.933 88.2734 238.352C88.5575 238.763 88.9197 239.108 89.3601 239.385C89.8004 239.655 90.2621 239.879 90.745 240.056C91.228 240.227 91.6719 240.365 92.0767 240.472L94.2926 241.068C94.8608 241.217 95.4929 241.423 96.1889 241.686C96.892 241.949 97.5632 242.308 98.2024 242.762C98.8487 243.21 99.3814 243.785 99.8004 244.488C100.219 245.191 100.429 246.054 100.429 247.077C100.429 248.256 100.12 249.321 99.5021 250.273C98.8913 251.224 97.9964 251.981 96.8175 252.542C95.6456 253.103 94.2216 253.384 92.5455 253.384C90.983 253.384 89.63 253.131 88.4865 252.627C87.3501 252.123 86.4553 251.42 85.8018 250.518C85.1555 249.616 84.7898 248.568 84.7045 247.375H87.4318C87.5028 248.199 87.7798 248.881 88.2628 249.42C88.7528 249.953 89.3707 250.351 90.1165 250.614C90.8693 250.869 91.679 250.997 92.5455 250.997C93.554 250.997 94.4595 250.834 95.2621 250.507C96.0646 250.173 96.7003 249.712 97.169 249.122C97.6378 248.526 97.8722 247.83 97.8722 247.034C97.8722 246.31 97.6697 245.72 97.2649 245.266C96.8601 244.811 96.3274 244.442 95.6669 244.158C95.0064 243.874 94.2926 243.625 93.5256 243.412L90.8409 242.645C89.1364 242.155 87.7869 241.455 86.7926 240.546C85.7983 239.637 85.3011 238.447 85.3011 236.977C85.3011 235.756 85.6314 234.69 86.2919 233.781C86.9595 232.865 87.8544 232.155 88.9766 231.651C90.1058 231.139 91.3665 230.884 92.7585 230.884C94.1648 230.884 95.4148 231.136 96.5085 231.64C97.6023 232.137 98.4688 232.819 99.108 233.685C99.7543 234.552 100.095 235.536 100.131 236.636H97.5739ZM103.58 233.526V231.182H119.943V233.526H113.083V253H110.441V233.526H103.58ZM122.367 253H119.597L127.608 231.182H130.336L138.347 253H135.577L129.057 234.634H128.887L122.367 253ZM123.39 244.477H134.555V246.821H123.39V244.477ZM141.746 253V231.182H149.118C150.822 231.182 152.221 231.473 153.315 232.055C154.409 232.631 155.219 233.423 155.744 234.431C156.27 235.44 156.532 236.587 156.532 237.872C156.532 239.158 156.27 240.298 155.744 241.292C155.219 242.286 154.412 243.067 153.326 243.636C152.239 244.197 150.851 244.477 149.16 244.477H143.194V242.091H149.075C150.24 242.091 151.177 241.92 151.888 241.58C152.605 241.239 153.123 240.756 153.443 240.131C153.77 239.499 153.933 238.746 153.933 237.872C153.933 236.999 153.77 236.235 153.443 235.582C153.116 234.928 152.594 234.424 151.877 234.069C151.16 233.707 150.211 233.526 149.032 233.526H144.388V253H141.746ZM152.015 243.199L157.385 253H154.317L149.032 243.199H152.015ZM159.742 233.526V231.182H176.105V233.526H169.245V253H166.603V233.526H159.742Z" fill="black"/>
<path d="M671.202 536V517.818H682.104V519.771H673.403V525.915H681.287V527.868H673.403V536H671.202ZM688.076 517.818V536H685.875V517.818H688.076ZM706.908 517.818V536H704.778L694.87 521.724H694.692V536H692.491V517.818H694.621L704.565 532.129H704.742V517.818H706.908ZM713.516 517.818V536H711.314V517.818H713.516ZM727.873 522.364C727.767 521.464 727.335 520.766 726.577 520.268C725.82 519.771 724.89 519.523 723.79 519.523C722.985 519.523 722.28 519.653 721.677 519.913C721.079 520.174 720.611 520.532 720.274 520.988C719.943 521.443 719.777 521.961 719.777 522.541C719.777 523.027 719.892 523.444 720.123 523.793C720.36 524.136 720.662 524.423 721.029 524.654C721.396 524.879 721.78 525.065 722.183 525.213C722.585 525.355 722.955 525.471 723.292 525.56L725.139 526.057C725.613 526.181 726.139 526.353 726.719 526.572C727.305 526.791 727.865 527.09 728.397 527.468C728.936 527.841 729.38 528.321 729.729 528.907C730.078 529.493 730.253 530.212 730.253 531.064C730.253 532.046 729.995 532.934 729.48 533.727C728.971 534.52 728.226 535.151 727.243 535.618C726.267 536.086 725.08 536.32 723.683 536.32C722.381 536.32 721.253 536.109 720.301 535.689C719.354 535.269 718.608 534.683 718.063 533.931C717.525 533.18 717.22 532.307 717.149 531.312H719.422C719.481 531.999 719.712 532.567 720.114 533.017C720.523 533.461 721.037 533.792 721.659 534.011C722.286 534.224 722.961 534.331 723.683 534.331C724.523 534.331 725.278 534.195 725.947 533.923C726.616 533.644 727.145 533.26 727.536 532.768C727.927 532.271 728.122 531.691 728.122 531.028C728.122 530.425 727.953 529.933 727.616 529.555C727.279 529.176 726.835 528.868 726.284 528.631C725.734 528.395 725.139 528.187 724.5 528.01L722.263 527.371C720.842 526.962 719.718 526.379 718.889 525.622C718.06 524.864 717.646 523.873 717.646 522.648C717.646 521.63 717.921 520.742 718.472 519.984C719.028 519.221 719.774 518.629 720.709 518.209C721.65 517.783 722.701 517.57 723.861 517.57C725.032 517.57 726.074 517.78 726.986 518.2C727.897 518.614 728.619 519.182 729.152 519.904C729.69 520.627 729.974 521.446 730.004 522.364H727.873ZM733.873 536V517.818H736.074V525.915H745.769V517.818H747.971V536H745.769V527.868H736.074V536H733.873Z" fill="white"/>
</svg>
