<svg width="1109" height="607" viewBox="0 0 1109 607" fill="none" xmlns="http://www.w3.org/2000/svg">
<rect width="118" height="111" fill="#74E995"/>
<rect x="990" y="171" width="118" height="70" fill="#E97474"/>
<rect y="103" width="118" height="177" fill="#E5E5E5"/>
<rect x="192" y="430" width="70" height="177" fill="#E5E5E5"/>
<rect x="1092.08" y="533.127" width="69.8566" height="899.273" transform="rotate(89.754 1092.08 533.127)" fill="#E5E5E5"/>
<rect x="865" y="33" width="67" height="371" fill="#E5E5E5"/>
<rect x="191.843" y="470.389" width="118" height="738.868" transform="rotate(-89.7561 191.843 470.389)" fill="#E5E5E5"/>
<rect x="1108.14" y="603.437" width="118" height="365.437" transform="rotate(179.978 1108.14 603.437)" fill="#E5E5E5"/>
<rect x="931.216" y="32.265" width="84.7171" height="429.169" transform="rotate(89.9529 931.216 32.265)" fill="#E5E5E5"/>
<rect x="400" y="33" width="118" height="177" fill="#E5E5E5"/>
<path d="M517.529 201.665L517.931 278.351L108 280.5L107.598 203.813L517.529 201.665Z" fill="#E5E5E5"/>
<path d="M23.5739 44.6364C23.446 43.5568 22.9276 42.7188 22.0185 42.1222C21.1094 41.5256 19.9943 41.2273 18.6733 41.2273C17.7074 41.2273 16.8622 41.3835 16.1378 41.696C15.4205 42.0085 14.8594 42.4382 14.4545 42.9851C14.0568 43.532 13.858 44.1534 13.858 44.8494C13.858 45.4318 13.9964 45.9325 14.2734 46.3516C14.5575 46.7635 14.9197 47.108 15.3601 47.3849C15.8004 47.6548 16.2621 47.8786 16.745 48.0561C17.228 48.2266 17.6719 48.3651 18.0767 48.4716L20.2926 49.0682C20.8608 49.2173 21.4929 49.4233 22.1889 49.6861C22.892 49.9489 23.5632 50.3075 24.2024 50.7621C24.8487 51.2095 25.3814 51.7848 25.8004 52.4879C26.2195 53.1911 26.429 54.054 26.429 55.0767C26.429 56.2557 26.12 57.321 25.5021 58.2727C24.8913 59.2244 23.9964 59.9808 22.8175 60.5419C21.6456 61.103 20.2216 61.3835 18.5455 61.3835C16.983 61.3835 15.63 61.1314 14.4865 60.6271C13.3501 60.1229 12.4553 59.4197 11.8018 58.5178C11.1555 57.6158 10.7898 56.5682 10.7045 55.375H13.4318C13.5028 56.1989 13.7798 56.8807 14.2628 57.4205C14.7528 57.9531 15.3707 58.3509 16.1165 58.6136C16.8693 58.8693 17.679 58.9972 18.5455 58.9972C19.554 58.9972 20.4595 58.8338 21.2621 58.5071C22.0646 58.1733 22.7003 57.7116 23.169 57.1222C23.6378 56.5256 23.8722 55.8295 23.8722 55.0341C23.8722 54.3097 23.6697 53.7202 23.2649 53.2656C22.8601 52.8111 22.3274 52.4418 21.6669 52.1577C21.0064 51.8736 20.2926 51.625 19.5256 51.4119L16.8409 50.6449C15.1364 50.1548 13.7869 49.4553 12.7926 48.5462C11.7983 47.6371 11.3011 46.4474 11.3011 44.9773C11.3011 43.7557 11.6314 42.6903 12.2919 41.7812C12.9595 40.8651 13.8544 40.1548 14.9766 39.6506C16.1058 39.1392 17.3665 38.8835 18.7585 38.8835C20.1648 38.8835 21.4148 39.1357 22.5085 39.6399C23.6023 40.1371 24.4688 40.8189 25.108 41.6854C25.7543 42.5518 26.0952 43.5355 26.1307 44.6364H23.5739ZM29.5797 41.5256V39.1818H45.9434V41.5256H39.0826V61H36.4405V41.5256H29.5797ZM48.367 61H45.5971L53.6085 39.1818H56.3358L64.3471 61H61.5772L55.0574 42.6335H54.8869L48.367 61ZM49.3897 52.4773H60.5545V54.821H49.3897V52.4773ZM67.7456 61V39.1818H75.1177C76.8223 39.1818 78.2214 39.473 79.3152 40.0554C80.4089 40.6307 81.2186 41.4226 81.7441 42.4311C82.2697 43.4396 82.5325 44.5866 82.5325 45.8722C82.5325 47.1577 82.2697 48.2976 81.7441 49.2919C81.2186 50.2862 80.4125 51.0675 79.3258 51.6357C78.2392 52.1967 76.8507 52.4773 75.1603 52.4773H69.1944V50.0909H75.0751C76.2399 50.0909 77.1774 49.9205 77.8876 49.5795C78.6049 49.2386 79.1234 48.7557 79.443 48.1307C79.7697 47.4986 79.9331 46.7457 79.9331 45.8722C79.9331 44.9986 79.7697 44.2351 79.443 43.5817C79.1163 42.9283 78.5943 42.424 77.877 42.0689C77.1596 41.7067 76.2115 41.5256 75.0325 41.5256H70.3876V61H67.7456ZM78.0154 51.1989L83.3848 61H80.3166L75.0325 51.1989H78.0154ZM85.7418 41.5256V39.1818H102.105V41.5256H95.2447V61H92.6026V41.5256H85.7418Z" fill="black"/>
<path d="M1007.2 215V196.818H1018.1V198.771H1009.4V204.915H1017.29V206.868H1009.4V215H1007.2ZM1024.08 196.818V215H1021.87V196.818H1024.08ZM1042.91 196.818V215H1040.78L1030.87 200.724H1030.69V215H1028.49V196.818H1030.62L1040.56 211.129H1040.74V196.818H1042.91ZM1049.52 196.818V215H1047.31V196.818H1049.52ZM1063.87 201.364C1063.77 200.464 1063.33 199.766 1062.58 199.268C1061.82 198.771 1060.89 198.523 1059.79 198.523C1058.98 198.523 1058.28 198.653 1057.68 198.913C1057.08 199.174 1056.61 199.532 1056.27 199.988C1055.94 200.443 1055.78 200.961 1055.78 201.541C1055.78 202.027 1055.89 202.444 1056.12 202.793C1056.36 203.136 1056.66 203.423 1057.03 203.654C1057.4 203.879 1057.78 204.065 1058.18 204.213C1058.59 204.355 1058.96 204.471 1059.29 204.56L1061.14 205.057C1061.61 205.181 1062.14 205.353 1062.72 205.572C1063.31 205.791 1063.86 206.09 1064.4 206.468C1064.94 206.841 1065.38 207.321 1065.73 207.907C1066.08 208.493 1066.25 209.212 1066.25 210.064C1066.25 211.046 1066 211.934 1065.48 212.727C1064.97 213.52 1064.23 214.151 1063.24 214.618C1062.27 215.086 1061.08 215.32 1059.68 215.32C1058.38 215.32 1057.25 215.109 1056.3 214.689C1055.35 214.269 1054.61 213.683 1054.06 212.931C1053.52 212.18 1053.22 211.307 1053.15 210.312H1055.42C1055.48 210.999 1055.71 211.567 1056.11 212.017C1056.52 212.461 1057.04 212.792 1057.66 213.011C1058.29 213.224 1058.96 213.331 1059.68 213.331C1060.52 213.331 1061.28 213.195 1061.95 212.923C1062.62 212.644 1063.15 212.26 1063.54 211.768C1063.93 211.271 1064.12 210.691 1064.12 210.028C1064.12 209.425 1063.95 208.933 1063.62 208.555C1063.28 208.176 1062.83 207.868 1062.28 207.631C1061.73 207.395 1061.14 207.187 1060.5 207.01L1058.26 206.371C1056.84 205.962 1055.72 205.379 1054.89 204.622C1054.06 203.864 1053.65 202.873 1053.65 201.648C1053.65 200.63 1053.92 199.742 1054.47 198.984C1055.03 198.221 1055.77 197.629 1056.71 197.209C1057.65 196.783 1058.7 196.57 1059.86 196.57C1061.03 196.57 1062.07 196.78 1062.99 197.2C1063.9 197.614 1064.62 198.182 1065.15 198.904C1065.69 199.627 1065.97 200.446 1066 201.364H1063.87ZM1069.87 215V196.818H1072.07V204.915H1081.77V196.818H1083.97V215H1081.77V206.868H1072.07V215H1069.87Z" fill="white"/>
</svg>
